<?xml version="1.0" encoding="utf-8"?>
<!-- Generator: Adobe Illustrator 16.2.1, SVG Export Plug-In . SVG Version: 6.00 Build 0)  -->
<!DOCTYPE svg PUBLIC "-//W3C//DTD SVG 1.1//EN" "http://www.w3.org/Graphics/SVG/1.1/DTD/svg11.dtd">
<svg version="1.1" id="Layer_1" xmlns="http://www.w3.org/2000/svg" xmlns:xlink="http://www.w3.org/1999/xlink" x="0px" y="0px"
	 width="24.031px" height="16.094px" viewBox="0 0 24.031 16.094" enable-background="new 0 0 24.031 16.094" xml:space="preserve">
<g>
	<g>
		<path fill="#777777" stroke="#777777" stroke-miterlimit="10" d="M23.084,4.221h-3.128V1.092c0-0.41-0.334-0.446-0.744-0.446
			s-0.744,0.036-0.744,0.446v3.129h-3.129c-0.412,0-0.447,0.333-0.447,0.745c0,0.411,0.035,0.745,0.447,0.745h3.129v3.127
			c0,0.413,0.334,0.448,0.744,0.448s0.744-0.035,0.744-0.448V5.71h3.128c0.411,0,0.447-0.333,0.447-0.745
			C23.531,4.553,23.495,4.221,23.084,4.221z"/>
	</g>
	<path fill="#777777" d="M10.682,0.15H1.587c-0.834,0-1.516,0.779-1.516,1.732v12.125c0,0.951,0.682,1.731,1.516,1.731h9.094
		c0.833,0,1.515-0.78,1.515-1.731V1.882C12.196,0.929,11.515,0.15,10.682,0.15z M10.682,14.008H1.587V1.882h9.094L10.682,14.008
		L10.682,14.008z M6.892,9.678H3.104v0.864h3.788V9.678z M9.165,6.213H6.133v0.866h3.032V6.213z M6.133,5.347h3.032V3.614H6.133
		V5.347z M5.376,3.614H3.104v3.465h2.272V3.614z M4.619,7.945H3.104v0.866h1.515V7.945z M5.376,8.811h3.789V7.945H5.376V8.811z
		 M9.165,11.409H3.104v0.866h6.062L9.165,11.409L9.165,11.409z M7.65,10.542h1.515V9.678H7.65V10.542z"/>
</g>
</svg>
