<?xml version="1.0" encoding="utf-8"?>
<!-- Generator: Adobe Illustrator 16.2.1, SVG Export Plug-In . SVG Version: 6.00 Build 0)  -->
<!DOCTYPE svg PUBLIC "-//W3C//DTD SVG 1.1//EN" "http://www.w3.org/Graphics/SVG/1.1/DTD/svg11.dtd">
<svg version="1.1" xmlns="http://www.w3.org/2000/svg" xmlns:xlink="http://www.w3.org/1999/xlink" x="0px" y="0px"
	 width="24.031px" height="16.094px" viewBox="0 0 24.031 16.094" enable-background="new 0 0 24.031 16.094" xml:space="preserve">
<g id="Layer_1" display="none">
	<g display="inline">
		<g>
			<path fill="#777777" stroke="#777777" stroke-miterlimit="10" d="M23.099,4.221h-3.128V1.092c0-0.41-0.334-0.446-0.744-0.446
				c-0.411,0-0.745,0.036-0.745,0.446v3.129h-3.128c-0.412,0-0.447,0.333-0.447,0.745c0,0.411,0.035,0.745,0.447,0.745h3.128v3.127
				c0,0.413,0.334,0.448,0.745,0.448c0.41,0,0.744-0.035,0.744-0.448V5.71h3.128c0.411,0,0.447-0.333,0.447-0.745
				C23.546,4.553,23.51,4.221,23.099,4.221z"/>
		</g>
		<path fill="#777777" d="M11,6.441H1.633c-0.862,0-1.561,0.699-1.561,1.562s0.699,1.561,1.561,1.561H11
			c0.862,0,1.562-0.698,1.562-1.561S11.862,6.441,11,6.441z"/>
		<path fill="#777777" d="M11,12.687H1.633c-0.862,0-1.561,0.698-1.561,1.562c0,0.862,0.699,1.561,1.561,1.561H11
			c0.862,0,1.562-0.698,1.562-1.561C12.562,13.385,11.862,12.687,11,12.687z"/>
		<path fill="#777777" d="M11,0.197H1.633c-0.862,0-1.561,0.699-1.561,1.561c0,0.863,0.699,1.562,1.561,1.562H11
			c0.862,0,1.562-0.699,1.562-1.562C12.562,0.896,11.862,0.197,11,0.197z"/>
	</g>
</g>
<g id="Layer_2">
	<g>
		<g>
			<path fill="#777777" stroke="#777777" stroke-miterlimit="10" d="M23.027,4.221h-3.129V1.092c0-0.41-0.334-0.446-0.744-0.446
				S18.41,0.682,18.41,1.092v3.129h-3.129c-0.412,0-0.447,0.333-0.447,0.745c0,0.411,0.035,0.745,0.447,0.745h3.129v3.128
				c0,0.412,0.334,0.447,0.744,0.447s0.744-0.035,0.744-0.447V5.71h3.129c0.41,0,0.447-0.333,0.447-0.745
				C23.475,4.553,23.438,4.221,23.027,4.221z"/>
		</g>
		<path fill="#777777" d="M10.758,6.343H1.537C0.688,6.343,0,7.031,0,7.88c0,0.85,0.688,1.537,1.537,1.537h9.221
			c0.848,0,1.537-0.688,1.537-1.537C12.295,7.031,11.605,6.343,10.758,6.343z"/>
		<path fill="#777777" d="M10.758,12.491H1.537C0.688,12.491,0,13.179,0,14.029c0,0.849,0.688,1.536,1.537,1.536h9.221
			c0.848,0,1.537-0.688,1.537-1.536C12.295,13.179,11.605,12.491,10.758,12.491z"/>
		<path fill="#777777" d="M10.758,0.197H1.537C0.688,0.197,0,0.885,0,1.733c0,0.849,0.688,1.537,1.537,1.537h9.221
			c0.848,0,1.537-0.688,1.537-1.537C12.295,0.885,11.605,0.197,10.758,0.197z"/>
	</g>
</g>
</svg>
