<?xml version="1.0" encoding="utf-8"?>
<!-- Generator: Adobe Illustrator 16.2.1, SVG Export Plug-In . SVG Version: 6.00 Build 0)  -->
<!DOCTYPE svg PUBLIC "-//W3C//DTD SVG 1.1//EN" "http://www.w3.org/Graphics/SVG/1.1/DTD/svg11.dtd">
<svg version="1.1" id="Layer_1" xmlns="http://www.w3.org/2000/svg" xmlns:xlink="http://www.w3.org/1999/xlink" x="0px" y="0px"
	 width="22px" height="22px" viewBox="0 0 22 22" enable-background="new 0 0 22 22" xml:space="preserve">
<g>
	<g>
		<path fill="#919AA1" d="M10.125,5.785H1.446C0.647,5.785,0,6.433,0,7.231c0,0.798,0.647,1.447,1.446,1.447h8.679
			c0.798,0,1.447-0.649,1.447-1.447C11.571,6.433,10.923,5.785,10.125,5.785z"/>
		<path fill="#919AA1" d="M10.125,11.57H1.446C0.647,11.57,0,12.219,0,13.018s0.647,1.445,1.446,1.445h8.679
			c0.798,0,1.447-0.646,1.447-1.445S10.923,11.57,10.125,11.57z"/>
		<path fill="#919AA1" d="M10.125,0H1.446C0.647,0,0,0.647,0,1.446c0,0.799,0.647,1.447,1.446,1.447h8.679
			c0.798,0,1.447-0.648,1.447-1.447C11.571,0.647,10.923,0,10.125,0z"/>
	</g>
</g>
</svg>
