<?xml version="1.0" encoding="utf-8"?>
<!-- Generator: Adobe Illustrator 16.2.1, SVG Export Plug-In . SVG Version: 6.00 Build 0)  -->
<!DOCTYPE svg PUBLIC "-//W3C//DTD SVG 1.1//EN" "http://www.w3.org/Graphics/SVG/1.1/DTD/svg11.dtd">
<svg version="1.1" id="Layer_1" xmlns="http://www.w3.org/2000/svg" xmlns:xlink="http://www.w3.org/1999/xlink" x="0px" y="0px"
	 width="19.562px" height="22px" viewBox="0 0 19.562 22" enable-background="new 0 0 19.562 22" xml:space="preserve">
<path fill="#919AA1" d="M14.521,0H2.074C0.934,0,0,0.933,0,2.074v14.521c0,1.143,0.934,2.073,2.074,2.073h12.447
	c1.141,0,2.073-0.931,2.073-2.073V2.074C16.595,0.933,15.662,0,14.521,0z M14.521,16.595H2.074V2.074h12.447V16.595z M9.334,11.409
	H4.15v1.036h5.184V11.409z M12.446,7.26H8.297v1.037h4.149V7.26z M8.297,6.222h4.149V4.149H8.297V6.222z M7.261,4.149H4.15v4.148
	h3.111V4.149z M6.223,9.334H4.15v1.038h2.073V9.334z M7.261,10.373h5.185V9.334H7.261V10.373z M12.446,13.483H4.15v1.037h8.296
	V13.483z M10.373,12.444h2.074v-1.036h-2.074V12.444z"/>
</svg>
